<?xml version="1.0" encoding="utf-8"?>
<!-- Generator: Adobe Illustrator 24.1.2, SVG Export Plug-In . SVG Version: 6.00 Build 0)  -->
<svg version="1.1" id="Ebene_1" xmlns="http://www.w3.org/2000/svg" xmlns:xlink="http://www.w3.org/1999/xlink" x="0px" y="0px"
	 viewBox="0 0 560.9 372.2" style="enable-background:new 0 0 560.9 372.2;" xml:space="preserve">
<style type="text/css">
	.st0{fill:#CAE08D;}
	.st1{fill:#A9CD49;}
</style>
<g>
	<path class="st0" d="M279.1,30.1c9.6-6.9,20.4-12.9,32.3-17.8c77.9-32.3,153.2,2.5,179.8,66.7l11.4,27.5L442,45.9
		C400.3,4.2,334.5-4.5,279.1,30.1z M324.9,326.3l-60.6-60.6l11.4,27.5c26.6,64.2,101.8,99,179.7,66.7c11.9-4.9,22.6-10.9,32.2-17.8
		C432.3,376.7,366.6,367.9,324.9,326.3z M523.7,127.6l-21.1-21.1l32.8,79.2c22.5,54.4,5.4,118.5-47.7,156.5
		c10-6.2,19.7-13.9,28.8-23C576.2,259.5,572.8,176.7,523.7,127.6z M279.1,30.1c-10,6.2-19.6,13.9-28.8,23
		c-59.6,59.6-56.3,142.4-7.2,191.6l21.1,21.1l-32.8-79.2C209,132.1,226.1,68,279.1,30.1z"/>
	<path class="st1" d="M535.4,185.7l-32.8-79.2L442,45.9C400.3,4.2,334.5-4.5,279.1,30.1c-53.1,38-70.2,102.1-47.6,156.4l32.8,79.2
		l60.6,60.6c41.6,41.6,107.4,50.4,162.8,15.9C540.8,304.2,557.9,240.1,535.4,185.7z"/>
	<g>
		<path d="M16.9,246.8c0,8.2,3.8,12.5,11.1,12.5c5.6,0,8.9-1.7,11.8-6.4l12.4,7.1c-5.1,8.8-12.5,12.3-26.1,12.3
			c-18.8,0-26.2-8.2-26.2-29v-3.8c0-10.7,1.4-16.8,5-21.4c4.2-5.7,11.1-8.5,21.3-8.5c18.8,0,26.3,8.6,26.3,29.9v5.8H16.9V246.8z
			 M36.7,233.8v-1.4c0-6.7-3.6-10.5-10.1-10.5c-6.1,0-9.8,3.9-9.8,10.5v1.4H36.7z"/>
		<path d="M101.7,267.3c-0.5,0.3-0.8,0.7-0.9,0.7c-3.6,3.1-7.6,4.3-14.4,4.3c-16,0-22.6-7.9-22.6-27v-8.7c0-18.9,6.7-27,22.2-27
			c3.8,0,6.6,0.5,9.6,1.7c0.5,0.2,0.5,0.2,2.1,1.2c0.5,0.2,0.5,0.2,1,0.6v-24.8h16.9V271h-13L101.7,267.3z M80.6,244
			c0,10.4,2.7,14.8,9.1,14.8c6.3,0,9-3.6,9-11.5v-12.9c0-7.9-2.9-11.5-9.1-11.5c-6.3,0-9,4.5-9,14.8V244z"/>
		<path d="M162.8,269c-3.6,2.3-7.3,3.2-12.7,3.2c-15.6,0-22.2-8-22.2-27v-8.7c0-19,6.6-27,22.5-27c6.6,0,11.1,1.5,14.8,4.7l1.6-3.4
			h13v57.7c0,10.1-1.7,16.6-5.7,21.3c-4.5,5.4-12.2,8.3-21.8,8.3c-11.6,0-19-3.9-23.4-12.4l12.5-6.9c2.8,4.7,5.4,6.4,10.3,6.4
			c7.6,0,10.9-4.3,11.1-14.7V269z M144.6,244c0,10.4,2.7,14.8,9.1,14.8c6.1,0,9-3.6,9-11.5v-12.9c0-7.9-2.9-11.5-9.1-11.5
			s-9,4.5-9,14.8V244z"/>
		<path d="M208.2,246.8c0,8.2,3.8,12.5,11.1,12.5c5.6,0,8.9-1.7,11.8-6.4l12.4,7.1c-5.1,8.8-12.5,12.3-26.1,12.3
			c-18.8,0-26.2-8.2-26.2-29v-3.8c0-10.7,1.4-16.8,5-21.4c4.2-5.7,11.1-8.5,21.3-8.5c18.8,0,26.3,8.6,26.3,29.9v5.8h-35.7V246.8z
			 M228,233.8v-1.4c0-6.7-3.6-10.5-10.1-10.5c-6.1,0-9.8,3.9-9.8,10.5v1.4H228z"/>
		<path d="M260.2,188.3h51.4v14.5h-33.6v19.8h28v14.5h-28V271h-17.8V188.3z"/>
		<path d="M322.3,188.3h17.8v68.2H375V271h-52.7V188.3z"/>
		<path d="M385.6,188.3h52.2v14.5h-34.6V222h29.3v14.5h-29.3v20h35.1V271h-52.7V188.3z"/>
		<path d="M448.9,188.3h19.5l15.4,25.9l13.8-25.9h18.6l-23.3,41.1l24.7,41.6h-19.5l-17-28.7L465.8,271h-18.6l24.8-43.9L448.9,188.3z
			"/>
	</g>
</g>
</svg>
